<?xml version="1.0" encoding="iso-8859-1"?>
<!-- Generator: Adobe Illustrator 16.0.0, SVG Export Plug-In . SVG Version: 6.00 Build 0)  -->
<!DOCTYPE svg PUBLIC "-//W3C//DTD SVG 1.1//EN" "http://www.w3.org/Graphics/SVG/1.1/DTD/svg11.dtd">
<svg version="1.1" id="Capa_1" xmlns="http://www.w3.org/2000/svg" xmlns:xlink="http://www.w3.org/1999/xlink" x="0px" y="0px"
	 width="400px" height="400px" viewBox="0 0 400 400" style="enable-background:new 0 0 400 400;" xml:space="preserve">
<g>
	<path fill="#c6d9ec" d="M199.99,0C89.715,0,0.002,89.72,0.002,200c0,54.818,22.178,104.542,58.02,140.705c0.199,0.229,0.359,0.484,0.576,0.701
		c0.219,0.222,0.475,0.375,0.705,0.576C95.459,377.82,145.18,400,199.99,400c110.289,0,200.008-89.72,200.008-200
		S310.279,0,199.99,0z M199.99,26.231c43.201,0,82.74,15.882,113.172,42.064L68.293,313.165
		C42.115,282.732,26.232,243.197,26.232,200C26.232,104.184,104.182,26.231,199.99,26.231z M199.99,373.77
		c-43.193,0-82.725-15.879-113.15-42.059L331.707,86.838c26.18,30.432,42.061,69.963,42.061,113.162
		C373.768,295.816,295.812,373.77,199.99,373.77z"/>
</g>
<g>
</g>
<g>
</g>
<g>
</g>
<g>
</g>
<g>
</g>
<g>
</g>
<g>
</g>
<g>
</g>
<g>
</g>
<g>
</g>
<g>
</g>
<g>
</g>
<g>
</g>
<g>
</g>
<g>
</g>
</svg>
