<?xml version="1.0" encoding="iso-8859-1"?>
<!-- Generator: Adobe Illustrator 19.0.0, SVG Export Plug-In . SVG Version: 6.00 Build 0)  -->
<svg version="1.1" id="Layer_1" xmlns="http://www.w3.org/2000/svg" xmlns:xlink="http://www.w3.org/1999/xlink" x="0px" y="0px"
	 viewBox="0 0 496.158 496.158" style="enable-background:new 0 0 496.158 496.158;" xml:space="preserve">
<path style="fill:#D8DBBA;" d="M248.082,0.003C111.07,0.003,0,111.063,0,248.085c0,137.001,111.07,248.07,248.082,248.07
	c137.006,0,248.076-111.069,248.076-248.07C496.158,111.062,385.088,0.003,248.082,0.003z"/>
<path style="fill:#48A1AF;" d="M315.047,80.192H182.135c-4.929,0-8.926,3.997-8.926,8.927v132.909c0,4.93,3.997,8.927,8.926,8.927
	h132.912c4.93,0,8.928-3.997,8.928-8.927V89.119C323.975,84.189,319.976,80.192,315.047,80.192z"/>
<path style="fill:#ECEDEA;" d="M295.307,184.651l-27.583-68.126c-1.291-3.409-2.36-6.129-3.201-8.173
	c-0.841-2.037-1.873-3.947-3.096-5.725c-1.23-1.773-2.835-3.229-4.829-4.356c-1.988-1.127-4.479-1.693-7.452-1.693
	c-2.929,0-5.388,0.566-7.384,1.693c-1.986,1.128-3.6,2.606-4.822,4.429s-2.376,4.116-3.453,6.878
	c-1.086,2.759-2.011,5.125-2.775,7.092l-27.009,68.559c-1.101,2.736-1.896,4.876-2.377,6.408c-0.481,1.54-0.719,3.026-0.719,4.467
	c0,2.495,1.032,4.727,3.096,6.695c2.063,1.968,4.44,2.954,7.132,2.954c3.17,0,5.447-0.926,6.84-2.774
	c1.39-1.846,3.071-5.411,5.043-10.692l5.037-13.54h42.92l5.045,13.249c0.673,1.635,1.475,3.52,2.415,5.656
	c0.933,2.136,1.811,3.722,2.629,4.75c0.81,1.035,1.818,1.853,3.019,2.449c1.2,0.604,2.645,0.902,4.326,0.902
	c2.881,0,5.342-1.021,7.374-3.062c2.05-2.041,3.065-4.283,3.065-6.733C298.547,193.609,297.469,189.836,295.307,184.651z
	 M233.371,162.69L249,119.12l15.92,43.57H233.371z"/>
<path style="fill:#EB9783;" d="M235.641,237.606H102.728c-4.93,0-8.927,3.998-8.927,8.927v132.908c0,4.929,3.997,8.927,8.927,8.927
	H235.64c4.921,0,8.927-3.998,8.927-8.927V246.534C244.567,241.604,240.561,237.606,235.641,237.606z"/>
<path style="fill:#ECEDEA;" d="M195.509,308.76c10.562-4.899,15.845-12.626,15.845-23.188c0-3.073-0.506-5.988-1.515-8.75
	c-1.001-2.759-2.468-5.282-4.387-7.563c-1.926-2.281-4.135-4.161-6.626-5.656c-2.936-1.773-6.244-2.973-9.942-3.596
	c-3.691-0.622-8.063-0.936-13.1-0.936h-34.209c-4.563,0-7.864,1.02-9.905,3.057c-2.04,2.044-3.057,5.392-3.057,10.046v79.361
	c0,4.563,0.994,7.887,2.988,9.974c1.988,2.09,5.312,3.134,9.974,3.134h32.26c5.571,0,10.439-0.275,14.62-0.829
	c4.173-0.551,7.873-1.499,11.09-2.844c5.136-2.254,9.217-5.751,12.243-10.478c3.019-4.731,4.54-10.047,4.54-15.95
	C216.328,321.77,209.389,313.177,195.509,308.76z M149.998,275.128h17.355c7.78,0,13.559,0.875,17.357,2.628
	c3.791,1.75,5.686,5.297,5.686,10.62c0,2.5-0.596,4.758-1.797,6.775c-1.536,2.832-3.76,4.75-6.664,5.759
	c-2.904,1.005-7.016,1.513-12.351,1.513h-19.587v-27.295H149.998z M172.971,348.581h-22.973v-30.822h22.254
	c7.438,0,13.039,1.208,16.775,3.603c3.746,2.404,5.619,6.268,5.619,11.594C194.646,343.372,187.424,348.581,172.971,348.581z"/>
<path style="fill:#EDC92F;" d="M394.453,237.606H261.549c-4.93,0-8.927,3.998-8.927,8.927v132.908c0,4.929,3.997,8.927,8.927,8.927
	h132.904c4.931,0,8.927-3.998,8.927-8.927V246.534C403.38,241.604,399.384,237.606,394.453,237.606z"/>
<path style="fill:#ECEDEA;" d="M372.137,329.047c-1.818-1.773-4.004-2.664-6.549-2.664c-2.974,0-5.137,0.875-6.48,2.625
	c-1.345,1.754-2.477,4.024-3.385,6.81c-2.157,5.9-5.366,10.378-9.615,13.428c-4.25,3.049-9.446,4.57-15.592,4.57
	c-5.663,0-10.607-1.341-14.835-4.032c-4.226-2.686-7.488-6.755-9.797-12.205c-2.3-5.449-3.454-12.278-3.454-20.486
	c0-12.29,2.606-21.774,7.818-28.446c5.205-6.675,12.204-10.012,20.987-10.012c5.524,0,10.171,1.299,13.939,3.89
	c3.769,2.594,7.039,6.503,9.828,11.739c1.682,3.168,3.202,5.399,4.57,6.699c1.376,1.291,3.424,1.94,6.159,1.94
	c2.445,0,4.54-0.936,6.268-2.809c1.729-1.872,2.59-4.031,2.59-6.48c0-4.463-1.78-9.205-5.325-14.223
	c-3.555-5.017-8.668-9.229-15.339-12.637c-6.673-3.409-14.284-5.117-22.829-5.117c-7.016,0-13.611,1.253-19.81,3.745
	c-6.19,2.499-11.586,6.137-16.203,10.91c-4.607,4.78-8.146,10.527-10.614,17.25c-2.477,6.721-3.716,14.333-3.716,22.829
	c0,5.234,0.498,10.179,1.477,14.837c0.985,4.655,2.459,9.034,4.433,13.142c1.964,4.104,4.341,7.811,7.122,11.124
	c3.126,3.649,6.542,6.591,10.271,8.823c3.715,2.232,7.857,3.879,12.42,4.934c4.563,1.055,9.623,1.582,15.193,1.582
	c7.344,0,13.78-1.173,19.305-3.527c5.52-2.354,10.051-5.411,13.604-9.183c3.555-3.767,6.161-7.608,7.818-11.521
	c1.652-3.913,2.485-7.547,2.485-10.914C374.882,333.032,373.964,330.824,372.137,329.047z"/>
<g>
</g>
<g>
</g>
<g>
</g>
<g>
</g>
<g>
</g>
<g>
</g>
<g>
</g>
<g>
</g>
<g>
</g>
<g>
</g>
<g>
</g>
<g>
</g>
<g>
</g>
<g>
</g>
<g>
</g>
</svg>
